# xmcd
#
# Track frame offsets: 
#        150
#        12023
#        23694
#        37913
#        53982
#        73943
#        86350
#        104517
#        126058
#        142683
#        160164
#        172957
#        191101
#        203531
#        217257
#
# Disc length: 3085 seconds
#
# Revision: 0
# Processed by: cddbd v1.5.2PL0 Copyright (c) Steve Scherf et al.
# Submitted via: ExactAudioCopy v0.95b4
#
DISCID=c50c0b0f
DTITLE=Yarn - Yarn
DYEAR=2007
DGENRE=Country
TTITLE0=Listen Up Sweetheart
TTITLE1=Bad Bad Man
TTITLE2=No Future Together
TTITLE3=Don't Break My Heart Again
TTITLE4=Wishing Well
TTITLE5=The Contender
TTITLE6=25 Years
TTITLE7=Tennessee
TTITLE8=Woman on the Interstate
TTITLE9=Madeline
TTITLE10=Dear Mama, I'm So Sorry
TTITLE11=Angel in Woodstock
TTITLE12=It Took a Long Time
TTITLE13=Cat and Mouse
TTITLE14=I Love the Way
EXTD=
EXTT0=
EXTT1=
EXTT2=
EXTT3=
EXTT4=
EXTT5=
EXTT6=
EXTT7=
EXTT8=
EXTT9=
EXTT10=
EXTT11=
EXTT12=
EXTT13=
EXTT14=
PLAYORDER=
